<?xml version="1.0" encoding="UTF-8" standalone="no"?>
<!-- Created with Inkscape (http://www.inkscape.org/) -->

<svg
   width="120"
   height="120"
   viewBox="0 0 120 120"
   version="1.1"
   id="svg1"
   xml:space="preserve"
   xmlns="http://www.w3.org/2000/svg"
   xmlns:svg="http://www.w3.org/2000/svg"><defs
     id="defs1" /><g
     id="layer1"><g
       id="layer1-6"
       transform="matrix(2.4670447,0,0,2.4670447,-2.0994749,4.864904)"><path
         style="display:inline;fill:#ffffff;stroke:#008000;stroke-width:0.714518"
         d="M 11.345719,11.558439 C 11.208783,22.542617 5.8266253,25.071252 5.8266253,25.071252 H 3.5860303 V 36.81373 L 5.731356,30.073438 18.754909,29.960877 20.383474,36.81373 V 24.622954 h -1.962746 c 0,0 -5.203555,-6.157797 -7.075009,-13.064515 z"
         id="path3" /><path
         style="display:inline;fill:#ffffff;stroke:#008000;stroke-width:0.32595"
         d="m 9.7689368,24.904148 h -0.975399 m 7.3124342,-0.214304 h -0.854443 m 0,0 c 0,0 -2.265264,-2.943628 -3.079964,-6.245265 v 3e-6 c -0.05961,5.250796 -2.4026282,6.459566 -2.4026282,6.459566 z"
         id="path3-2" /><path
         style="fill:#00ff00;stroke:#008000;stroke-width:0.03125"
         d="M 3.9555921,29.929687 3.953125,25.453125 H 4.9304442 5.9077634 L 6.1532786,25.313212 C 7.4758931,24.559488 8.8871797,22.872913 9.8147731,20.9375 10.728516,19.030986 11.319368,16.766559 11.571421,14.205192 l 0.05361,-0.544807 0.152663,0.404182 c 1.050829,2.782125 2.780251,5.925203 4.851785,8.817708 0.493624,0.689252 1.046993,1.418792 1.410775,1.859912 l 0.199727,0.242188 h 0.887821 0.887821 l -0.0021,4.320312 -0.0021,4.320313 -0.481837,-2.015625 c -0.26501,-1.108594 -0.482037,-2.019591 -0.482283,-2.024438 -2.45e-4,-0.0048 -0.489118,-8.06e-4 -1.086384,0.009 -0.597265,0.0098 -3.65206,0.03925 -6.788434,0.06548 -3.1363727,0.02623 -5.7060123,0.0512 -5.7103099,0.0555 -0.0043,0.0043 -0.338825,1.047549 -0.7433941,2.318337 -0.4045692,1.270788 -0.7412413,2.324585 -0.7481601,2.341773 -0.00692,0.01719 -0.01369,-1.983203 -0.015047,-4.445313 z m 7.5319919,-4.913965 c 0.866204,-0.03432 2.095228,-0.08357 2.731166,-0.109435 0.635937,-0.02587 1.321484,-0.047 1.523437,-0.04697 l 0.367188,6e-5 V 24.6875 24.515625 H 15.725117 15.34086 l -0.235937,-0.335938 c -0.762659,-1.085909 -1.578015,-2.557239 -2.076362,-3.746846 -0.21711,-0.518265 -0.572181,-1.552357 -0.640614,-1.865695 l -0.03993,-0.182855 -0.111506,0.01845 c -0.06133,0.01015 -0.143147,0.0186 -0.181819,0.01879 -0.06785,3.32e-4 -0.07031,0.01051 -0.07031,0.290972 0,0.357645 -0.04876,1.011785 -0.111106,1.490622 -0.241062,1.851342 -0.865415,3.343893 -1.7523,4.188972 -0.3713559,0.35385 -0.3414812,0.342278 -0.8836056,0.342278 H 8.765625 v 0.171875 0.171875 h 0.5735219 c 0.3154371,0 1.2822341,-0.02808 2.1484371,-0.0624 z"
         id="path9" /><text
         xml:space="preserve"
         style="font-style:normal;font-variant:normal;font-weight:normal;font-stretch:normal;font-size:8.32684px;font-family:sans-serif;-inkscape-font-specification:sans-serif;fill:#00ff00;stroke:#008000;stroke-width:0.693904"
         x="17.844101"
         y="16.346184"
         id="text9"
         transform="scale(0.86331235,1.1583293)"><tspan
           id="tspan9"
           x="17.844101"
           y="16.346184"
           style="font-style:normal;font-variant:normal;font-weight:normal;font-stretch:normal;font-family:sans-serif;-inkscape-font-specification:sans-serif;stroke-width:0.693904">птечный</tspan></text><text
         xml:space="preserve"
         style="font-style:normal;font-variant:normal;font-weight:normal;font-stretch:normal;font-family:sans-serif;-inkscape-font-specification:sans-serif;fill:#ffffff;stroke:#000000;stroke-opacity:1"
         x="22.637932"
         y="31.205326"
         id="text10"><tspan
           id="tspan10"
           x="22.637932"
           y="31.205326">ом</tspan></text></g></g></svg>
